HIERARCHY
ROOT Hips
{
	OFFSET 0.00 0.00 0.00
	CHANNELS 6 Xposition Yposition Zposition Xrotation Yrotation Zrotation
	JOINT Spine
	{
		OFFSET 0.00000 4.88528 0.00000
		CHANNELS 3 Xrotation Yrotation Zrotation
		JOINT Head
		{
			OFFSET 0.00000 16.49416 0.00000
			CHANNELS 3 Xrotation Yrotation Zrotation
			End Site
			{
				OFFSET 0.00000 4.52755 0.00000
			}
		}
		JOINT LeftShoulder
		{
			OFFSET 0.00000 10.66345 0.00000
			CHANNELS 3 Xrotation Yrotation Zrotation
			JOINT LeftArm
			{
				OFFSET 7.53191 0.00000 0.00000
				CHANNELS 3 Xrotation Yrotation Zrotation
				JOINT LeftForeArm
				{
					OFFSET 10.22920 0.00000 0.00000
					CHANNELS 3 Yrotation Zrotation Xrotation
					JOINT LeftHand
					{
						OFFSET 8.67349 0.00000 0.00000
						CHANNELS 3 Xrotation Yrotation Zrotation
						JOINT LeftHandThumb1
						{
							OFFSET 0.00000 0.00000 0.00000
							CHANNELS 3 Xrotation Zrotation Yrotation
							End Site
							{
								OFFSET 0.00000 0.00000 3.93700
							}
						}
						End Site
						{
							OFFSET 3.93700 0.00000 0.00000
						}
					}
				}
			}
		}
		JOINT RightShoulder
		{
			OFFSET 0.00000 10.66345 0.00000
			CHANNELS 3 Xrotation Yrotation Zrotation
			JOINT RightArm
			{
				OFFSET -7.53191 0.00000 0.00000
				CHANNELS 3 Xrotation Yrotation Zrotation
				JOINT RightForeArm
				{
					OFFSET -10.22920 0.00000 0.00000
					CHANNELS 3 Yrotation Zrotation Xrotation
					JOINT RightHand
					{
						OFFSET -8.67349 0.00000 0.00000
						CHANNELS 3 Xrotation Yrotation Zrotation
						JOINT RightHandThumb1
						{
							OFFSET 0.00000 0.00000 0.00000
							CHANNELS 3 Xrotation Zrotation Yrotation
							End Site
							{
								OFFSET 0.00000 0.00000 3.93700
							}
						}
						End Site
						{
							OFFSET -3.93700 0.00000 0.00000
						}
					}
				}
			}
		}
	}
	JOINT LeftUpLeg
	{
		OFFSET 2.67219 0.00000 0.00000
		CHANNELS 3 Xrotation Yrotation Zrotation
		JOINT LeftLeg
		{
			OFFSET 0.00000 -16.26339 0.00000
			CHANNELS 3 Xrotation Yrotation Zrotation
			JOINT LeftFoot
			{
				OFFSET 0.00000 -14.32816 0.00000
				CHANNELS 3 Xrotation Yrotation Zrotation
				JOINT LeftToeBase
				{
					OFFSET 0.00000 -1.30219 4.85985
					CHANNELS 3 Xrotation Yrotation Zrotation
					End Site
					{
						OFFSET 0.00000 0.00000 2.95275
					}
				}
			}
		}
	}
	JOINT RightUpLeg
	{
		OFFSET -2.67219 0.00000 0.00000
		CHANNELS 3 Xrotation Yrotation Zrotation
		JOINT RightLeg
		{
			OFFSET 0.00000 -16.26339 0.00000
			CHANNELS 3 Xrotation Yrotation Zrotation
			JOINT RightFoot
			{
				OFFSET 0.00000 -14.32816 0.00000
				CHANNELS 3 Xrotation Yrotation Zrotation
				JOINT RightToeBase
				{
					OFFSET 0.00000 -1.30219 4.85985
					CHANNELS 3 Xrotation Yrotation Zrotation
					End Site
					{
						OFFSET 0.00000 0.00000 2.95275
					}
				}
			}
		}
	}
}
MOTION
Frames: 7
Frame Time: 0.008333
 -0.2264 32.8156 -16.9711 5.1720 1.9934 -0.8867 -7.9045 -7.2817 -0.8729 13.5935 -4.1731 -1.6535 33.9755 32.6248 16.6212 -73.7291 -0.4956 -31.9108 4.3654 0.0000 7.8160 0.6991 -6.0616 6.5913 33.1476 -0.0000 26.2537 -5.5537 -2.8750 -30.0781 -19.1275 -0.5633 41.5450 1.0897 -0.0000 12.9760 -0.0808 3.3289 1.3905 32.8623 0.0000 -24.3270 -3.5381 -7.4885 2.9373 4.5574 0.0000 -0.0000 -5.0297 15.1469 -12.7631 -9.0362 0.0000 0.0000 1.3136 3.1398 3.6255 -6.7533 0.0000 -0.0000 -2.9168 -16.6394 1.8527 -3.5006 0.0000 0.0000
 -0.2468 32.8149 -16.9748 5.1790 1.9865 -0.8877 -7.9011 -7.2532 -0.8954 13.5983 -4.1515 -1.6535 33.9995 32.6619 16.6118 -73.7624 -0.5080 -31.8811 4.3561 0.0000 7.8729 0.6841 -6.0082 6.5079 33.1476 -0.0000 26.2537 -5.5495 -2.8620 -30.0627 -19.1421 -0.5950 41.5090 1.1096 -0.0000 12.9751 -0.0810 3.3887 1.3704 32.8623 0.0000 -24.3270 -4.0729 -6.6521 2.9102 5.5407 -0.0000 -0.0000 -5.4110 14.3990 -12.5020 -9.2366 0.0000 0.0000 1.3196 3.1473 3.6575 -6.8013 0.0000 0.0000 -2.8856 -16.6255 1.8586 -3.4696 0.0000 -0.0000
 -0.2651 32.8141 -16.9793 5.1966 1.9737 -0.8785 -7.9132 -7.2012 -0.9183 13.6141 -4.1494 -1.6696 33.9662 32.6414 16.6390 -73.6895 -0.5371 -31.8296 4.3451 0.0000 7.8899 0.6821 -5.9917 6.5063 33.1476 -0.0000 26.2537 -5.5375 -2.8723 -30.0604 -19.1317 -0.5718 41.4839 1.1338 -0.0000 12.8981 -0.0730 3.3119 1.2642 32.8623 0.0000 -24.3270 -4.3299 -6.5500 2.8990 6.0105 0.0000 -0.0000 -5.5903 14.3395 -12.4147 -9.3032 -0.0000 -0.0000 1.3266 3.2202 3.6638 -6.8803 -0.0000 0.0000 -2.8278 -16.6567 1.9283 -3.5571 0.0000 0.0000
 -0.2808 32.8128 -16.9840 5.2150 1.9503 -0.8630 -7.9199 -7.1328 -0.9330 13.6076 -4.1580 -1.6969 33.9175 32.6118 16.6618 -73.6149 -0.5711 -31.7802 4.3286 0.0000 7.9046 0.6737 -5.8962 6.5302 33.1476 -0.0000 26.2537 -5.5380 -2.8855 -30.0765 -19.1494 -0.5905 41.4625 1.1675 -0.0000 12.9193 -0.0725 3.2858 1.2640 32.8623 0.0000 -24.3270 -4.4534 -6.7643 2.8907 6.2403 -0.0000 -0.0000 -5.6623 14.5734 -12.4785 -9.3429 0.0000 -0.0000 1.3283 3.2724 3.6582 -6.9443 -0.0000 0.0000 -2.7872 -16.6508 2.0305 -3.4403 -0.0000 0.0000
 -0.2944 32.8130 -16.9875 5.2327 1.9415 -0.8051 -7.9378 -7.0801 -1.0018 13.6136 -4.1626 -1.7028 33.9153 32.6016 16.6641 -73.5842 -0.6121 -31.7318 4.3485 0.0000 7.9127 0.6879 -5.9079 6.6535 33.1476 -0.0000 26.2537 -5.5370 -2.8939 -30.0748 -19.1192 -0.5627 41.4375 1.2170 -0.0000 12.8952 -0.0674 3.1804 1.2156 32.8623 0.0000 -24.3270 -4.5632 -7.0109 2.8336 6.4363 0.0000 -0.0000 -5.6925 14.8184 -12.5068 -9.3760 0.0000 -0.0000 1.3373 3.2776 3.6060 -7.0041 -0.0000 -0.0000 -2.7517 -16.6093 2.1623 -3.4518 -0.0000 -0.0000
 -0.3104 32.8128 -16.9907 5.2419 1.9251 -0.7791 -7.9403 -7.0484 -1.0388 13.6194 -4.1291 -1.7145 33.9179 32.6325 16.6507 -73.5782 -0.6347 -31.7039 4.3206 0.0000 7.9166 0.6763 -5.8548 6.6010 33.1476 -0.0000 26.2537 -5.5755 -2.8542 -30.0679 -19.0763 -0.5539 41.3983 1.2358 -0.0000 12.9415 -0.0685 3.2256 1.2172 32.8623 0.0000 -24.3270 -4.7094 -7.0852 2.8046 6.7173 -0.0000 0.0000 -5.7851 14.9438 -12.4350 -9.3817 0.0000 0.0000 1.3555 3.2969 3.5906 -7.0710 0.0000 0.0000 -2.7179 -16.5784 2.2840 -3.4235 0.0000 -0.0000
 -0.3264 32.8131 -16.9938 5.2427 1.9191 -0.7547 -7.9328 -7.0081 -1.0695 13.6203 -4.1222 -1.7303 33.9001 32.6324 16.6667 -73.5784 -0.6263 -31.6755 4.3117 0.0000 7.9501 0.6808 -5.8484 6.6515 33.1476 -0.0000 26.2537 -5.5844 -2.8440 -30.0696 -19.0407 -0.5345 41.3611 1.2539 -0.0000 12.9691 -0.0721 3.2226 1.2829 32.8623 0.0000 -24.3270 -4.8546 -7.2080 2.7836 7.0179 0.0000 -0.0000 -5.8727 15.0702 -12.4535 -9.4032 0.0000 -0.0000 1.3685 3.1760 3.5879 -7.0819 0.0000 0.0000 -2.6950 -16.4167 2.4475 -3.5106 -0.0000 0.0000
